<?xml version="1.0" standalone="no"?>
<!DOCTYPE svg PUBLIC "-//W3C//DTD SVG 20010904//EN"
 "http://www.w3.org/TR/2001/REC-SVG-20010904/DTD/svg10.dtd">
<svg version="1.0" xmlns="http://www.w3.org/2000/svg"
 width="166.000000pt" height="159.000000pt" viewBox="0 0 166.000000 159.000000"
 preserveAspectRatio="xMidYMid meet">

<g transform="translate(0.000000,159.000000) scale(0.100000,-0.100000)"
fill="#000000" stroke="none">
<path d="M360 1362 c-49 -24 -80 -75 -80 -129 0 -37 6 -50 38 -84 l37 -40 39
51 c22 29 64 73 93 98 l53 46 -23 24 c-24 26 -75 52 -104 52 -10 0 -34 -8 -53
-18z"/>
<path d="M1245 1361 c-16 -10 -38 -27 -48 -38 -17 -20 -16 -21 37 -67 30 -25
71 -69 91 -97 l38 -50 24 23 c79 73 66 180 -27 229 -44 24 -77 24 -115 0z"/>
<path d="M570 1161 c-129 -40 -228 -155 -238 -277 -7 -79 5 -121 45 -165 28
-31 42 -39 71 -39 32 0 48 13 170 133 121 119 135 130 146 113 54 -89 70 -102
110 -92 17 4 37 23 57 56 17 28 34 50 38 50 4 0 52 -46 107 -102 166 -171 191
-184 255 -131 41 35 59 79 59 146 0 78 -25 140 -83 203 -88 97 -207 136 -301
100 -53 -20 -110 -80 -103 -107 4 -17 -1 -19 -41 -19 -43 0 -47 2 -48 26 -5
76 -143 135 -244 105z m140 -156 c10 -12 10 -18 0 -30 -27 -32 -71 -8 -56 30
3 8 14 15 24 15 11 0 25 -7 32 -15z m415 -15 c0 -18 -6 -26 -23 -28 -24 -4
-38 18 -28 44 3 9 15 14 28 12 17 -2 23 -10 23 -28z"/>
<path d="M211 722 c-22 -27 -41 -55 -41 -60 0 -6 11 -47 25 -90 66 -208 257
-388 475 -448 102 -28 273 -24 372 8 187 62 331 183 412 349 25 52 51 122 58
156 11 60 11 62 -16 97 -31 41 -46 39 -46 -7 0 -48 -51 -147 -98 -189 -97 -87
-228 -127 -442 -135 -89 -3 -174 -1 -220 6 -71 11 -76 11 -89 -8 -18 -27 -35
-27 -21 0 14 24 12 28 -20 31 -21 3 -29 -7 -57 -62 -18 -36 -37 -66 -43 -68
-16 -6 -13 5 24 77 l34 68 -54 26 c-29 15 -72 43 -95 64 -44 40 -99 141 -99
183 0 53 -15 54 -59 2z"/>
</g>
</svg>
